<svg id="Capa_1" data-name="Capa 1" xmlns="http://www.w3.org/2000/svg" xmlns:xlink="http://www.w3.org/1999/xlink" viewBox="0 0 80 80"><defs><style>.cls-1{fill:none;}.cls-2{clip-path:url(#clip-path);}.cls-3{fill:#f0cf32;}.cls-4{fill:#599a50;}.cls-5{fill:#080806;}</style><clipPath id="clip-path"><circle class="cls-1" cx="40" cy="40.01" r="38.69"/></clipPath></defs><g id="Capa_2" data-name="Capa 2"><g id="Capa_1-2" data-name="Capa 1-2"><g class="cls-2"><rect class="cls-3" x="-27.16" y="-0.29" width="134.32" height="80.59"/><path class="cls-4" d="M94.6-.29C94,.14,93.33.53,92.67.9L40.31,32.32a.6.6,0,0,1-.68,0L-14.29-.07l-.31-.22Z"/><path class="cls-4" d="M-14.6,80.32c.71-.52,1.46-.92,2.2-1.36L39.66,47.7a.53.53,0,0,1,.65,0l54,32.38a2.26,2.26,0,0,1,.31.23Z"/><path class="cls-5" d="M107.16,72.73c-.08.11-.13,0-.19,0L53,40.32l-.47-.27.47-.27,53.76-32.3c.13-.08.26-.22.43-.19Z"/><path class="cls-5" d="M-27.16,7.32a22.7,22.7,0,0,1,2.3,1.31c1.46.86,2.91,1.75,4.36,2.62L-14,15.14-7.59,19,1,24.16l8.6,5.16,8.58,5.15L26,39.16c.46.27.9.57,1.4.88-.5.31-1,.61-1.41.88L-26.61,72.47a1.55,1.55,0,0,1-.55.26Z"/></g></g></g></svg>