<svg id="Capa_1" data-name="Capa 1" xmlns="http://www.w3.org/2000/svg" xmlns:xlink="http://www.w3.org/1999/xlink" viewBox="0 0 54 54"><defs><style>.cls-1,.cls-10,.cls-15{fill:none;}.cls-2{clip-path:url(#clip-path);}.cls-3,.cls-7{fill:#fff;}.cls-4,.cls-9{fill:#ed1b2d;}.cls-14,.cls-5{fill:#fff200;}.cls-10,.cls-13,.cls-5,.cls-6,.cls-7,.cls-9{stroke:#000;stroke-width:0.01px;}.cls-6{fill:#99bfe5;}.cls-8{fill:#e4c0a1;}.cls-11,.cls-13{fill:#22772d;}.cls-12{fill:#6e5200;}.cls-15{stroke:#231f20;stroke-width:0.07px;}</style><clipPath id="clip-path"><circle class="cls-1" cx="27.01" cy="27" r="26.5"/></clipPath></defs><g id="Capa_2" data-name="Capa 2"><g id="Capa_2-2" data-name="Capa 2-2"><g class="cls-2"><rect class="cls-3" x="-12.46" y="0.2" width="78.93" height="53.59"/><rect class="cls-4" x="-12.46" y="0.2" width="26.31" height="53.59"/><rect class="cls-4" x="40.16" y="0.2" width="26.31" height="53.59"/><path class="cls-5" d="M31.93,29.15a7.22,7.22,0,0,1-.75-2,4.15,4.15,0,0,1,.59-3.47l.17-.23-.23-.15a3.07,3.07,0,0,1-1.11-1.36l-.1-.25-.25.1A3.28,3.28,0,0,1,27,21.41l-.16-.12-.16.11a3.18,3.18,0,0,1-3.2.49l-.25-.11-.11.26A3,3,0,0,1,22,23.37l-.21.17.17.21a3.93,3.93,0,0,1,.51.92,5.1,5.1,0,0,1,0,3.32h0a7.66,7.66,0,0,0-.62,2.63,2.1,2.1,0,0,0,.46,1.12l.16.21h0a2.43,2.43,0,0,0,1.7.73h.33a9.25,9.25,0,0,1,1.3.18h.09a1.8,1.8,0,0,1,.92.54l.19.18.18-.19A3.73,3.73,0,0,1,30,32.51a1.71,1.71,0,0,0,.32,0h0a2.89,2.89,0,0,0,1-.55A2.81,2.81,0,0,0,31.93,29.15Z"/><path class="cls-6" d="M22.8,28a5.32,5.32,0,0,0-.07-3.37,4.63,4.63,0,0,0-.55-1,3.45,3.45,0,0,0,1.19-1.45,3,3,0,0,0,.89.23,3.59,3.59,0,0,0,2.47-.67l.06,6.19Z"/><path class="cls-7" d="M26.93,21.72a3.14,3.14,0,0,0,.83.44,3.52,3.52,0,0,0,2.59-.1,3.21,3.21,0,0,0,1.21,1.49,4.4,4.4,0,0,0-.64,3.69c0,.22.17.62.17.62l-4,.05S27,23.81,26.93,21.72Z"/><polygon class="cls-8" points="22.84 27.85 24.05 27.47 25.02 27.65 25.39 27.54 26.77 27.79 26.79 27.91 22.8 27.97 22.84 27.85"/><line class="cls-1" x1="24.99" y1="27.66" x2="24.26" y2="27.93"/><path class="cls-8" d="M27.06,27.82s1.45-.32,1.51-.32.41,0,.62,0a3.06,3.06,0,0,0,.45.06,3.75,3.75,0,0,1,.67,0c.08,0,.75.19.75.19v.07l-4,.06Z"/><path class="cls-1" d="M29.51,27.5l.33.13.41.2"/><path class="cls-9" d="M31.15,28.05a6.88,6.88,0,0,0,.55,1.24,2.6,2.6,0,0,1-.45,2.54,3.25,3.25,0,0,1-.94.49H30a3.91,3.91,0,0,0-3,1,2,2,0,0,0-1-.61H26a5.51,5.51,0,0,0-1.39-.21h-.33a2,2,0,0,1-1.68-.84h0a1.75,1.75,0,0,1-.41-1,7,7,0,0,1,.58-2.47Z"/><path class="cls-5" d="M24.12,27.73H24l-.07-.09a.14.14,0,0,1,0-.09l-.06-.12a.37.37,0,0,1-.05-.23.7.7,0,0,0-.12-.28s.07-.39.08-.48a.7.7,0,0,0-.11-.37,1.43,1.43,0,0,1-.15-.39v-.26a.08.08,0,0,0,0,.08.21.21,0,0,0,0,.11v.19h-.06v-.05a.49.49,0,0,1,0-.41,1.27,1.27,0,0,1,.36-.33,2.08,2.08,0,0,1,.61,0,7.06,7.06,0,0,0,.92,0c.19,0,.32.06.45-.5v-1a.71.71,0,0,1,.15-.3s-.08-.19.17-.36a.66.66,0,0,1,0,.28,1.14,1.14,0,0,1,.23.15c0,.06.22.11.24.12h0l-.07.05a.9.9,0,0,1-.07.11,1.13,1.13,0,0,1-.26,0s-.11,0-.13.09,0,1.21,0,1.26a.88.88,0,0,0-.05.15,1.43,1.43,0,0,1,0,.65h0l-.16.24h0s-.12.12-.11.22-.06,1.21.11,1.4h-.1a.46.46,0,0,1-.23-.12c0-.05-.05-.63-.05-.65l-.05-.08a5.21,5.21,0,0,0-.13.79.22.22,0,0,0,.11.14h-.16a.38.38,0,0,1,0-.21,6.36,6.36,0,0,0,.06-.87,1.67,1.67,0,0,1,0-.63.09.09,0,0,0,0-.07s-.57.33-.89-.15h-.06a.43.43,0,0,0,0,.16,1.26,1.26,0,0,1-.05.33,4.9,4.9,0,0,1-.18.46.54.54,0,0,0,0,.18,4.35,4.35,0,0,0,.28.76l.09.06h-.16l-.38-.88a.06.06,0,0,1,0-.06,1.09,1.09,0,0,0,0,.36,1.84,1.84,0,0,0,.14.51l.12.11Z"/><path class="cls-8" d="M25.8,24.69h0v-.08S25.79,24.68,25.8,24.69Z"/><path class="cls-8" d="M25.57,25Z"/><path class="cls-8" d="M25.43,25Z"/><path class="cls-8" d="M25.38,25.37Z"/><polygon class="cls-8" points="24.34 25.54 24.34 25.56 24.34 25.55 24.32 25.53 24.34 25.55 24.34 25.54"/><path class="cls-8" d="M25.22,25.64Z"/><path class="cls-8" d="M23.69,25.71Z"/><path class="cls-8" d="M25.45,26V26h0v.1h0V26h0S25.51,26,25.45,26Z"/><polygon class="cls-8" points="25.3 26.27 25.29 26.22 25.3 26.25 25.3 26.27"/><polygon class="cls-8" points="23.82 26.54 23.82 26.51 23.82 26.53 23.82 26.54"/><path class="cls-8" d="M24,26.9Z"/><rect class="cls-8" x="25.34" y="26.91" width="0.01" height="0.05"/><path class="cls-10" d="M23.92,26.76a1.09,1.09,0,0,1,.11-.39,2.49,2.49,0,0,0,.21-.47v-.34"/><line class="cls-10" x1="25.85" y1="25.57" x2="25.91" y2="25.8"/><line class="cls-10" x1="25.85" y1="25.03" x2="26" y2="25.16"/><path class="cls-10" d="M25.23,25.69l.1.32s.06.35.08.42v.28"/><path d="M26.15,23.36H26c-.06,0-.06,0-.06-.08s.09,0,.12,0A.18.18,0,0,1,26.15,23.36Z"/><path class="cls-3" d="M26.06,23.38Z"/><path class="cls-8" d="M26,23.69Z"/><polygon class="cls-8" points="25.73 23.72 25.73 23.7 25.75 23.72 25.73 23.72"/><path class="cls-8" d="M25.83,24.07V24S25.85,24.05,25.83,24.07Z"/><path class="cls-11" d="M28.39,24.87a.7.7,0,0,0-.08-.51s-.11.32,0,.45a1.12,1.12,0,0,0-.36.29S28.16,25.16,28.39,24.87Z"/><path class="cls-11" d="M28.41,24.15a.55.55,0,0,0,0-.53.71.71,0,0,0-.09.45,1,1,0,0,0-.43.1A.45.45,0,0,0,28.41,24.15Z"/><path class="cls-11" d="M28.85,23.68c.34-.13.41-.31.41-.31s-.33.06-.4.22c0,0-.27-.27-.4-.27A.41.41,0,0,0,28.85,23.68Z"/><path class="cls-11" d="M29.19,24.25A.42.42,0,0,0,29.7,24a1.7,1.7,0,0,0-.45.15,1.47,1.47,0,0,0-.24-.4S28.93,24,29.19,24.25Z"/><path class="cls-11" d="M28.05,25.62c-.13-.34-.31-.41-.31-.41s.06.33.22.4a1.28,1.28,0,0,0-.17.42S28,26,28.05,25.62Z"/><path class="cls-11" d="M28.42,25.7c-.05-.37-.22-.47-.22-.47s0,.34.13.44a1.18,1.18,0,0,0-.26.37S28.28,26,28.42,25.7Z"/><path class="cls-11" d="M29.39,25.67c.17.33.36.37.36.37s-.11-.32-.28-.37a1.69,1.69,0,0,0,.12-.44S29.39,25.31,29.39,25.67Z"/><path class="cls-11" d="M29.8,25.55c.13.35.31.41.31.41s-.07-.33-.23-.4c0,0,.26-.22.26-.35S29.85,25.19,29.8,25.55Z"/><path class="cls-11" d="M29.64,24.72a.63.63,0,0,0,.47.18s-.22-.25-.39-.22c0,0,.09-.35,0-.46A.39.39,0,0,0,29.64,24.72Z"/><path class="cls-11" d="M29.25,25.05a.44.44,0,0,0,.5.07s-.25-.19-.42-.15a1.34,1.34,0,0,0-.1-.44A.47.47,0,0,0,29.25,25.05Z"/><path class="cls-12" d="M28.73,25.19c-.13-.32-.76-.59-.76-.59a4.91,4.91,0,0,1,.53.4,2.3,2.3,0,0,1,.29.93,1.34,1.34,0,0,0-1.14-.35s1,0,1.12.62a4.23,4.23,0,0,1-.14,1.62,2.53,2.53,0,0,1,.55,0,5.72,5.72,0,0,1-.12-1.65,1,1,0,0,1,1.2-.58A1.08,1.08,0,0,0,29,26a1.56,1.56,0,0,1,.87-1.47,1.9,1.9,0,0,0-.85.68,2.24,2.24,0,0,1,.46-1.45,3.52,3.52,0,0,0-.56,1,6.85,6.85,0,0,1-.12-1.43,13,13,0,0,1-.07,1.4,1.84,1.84,0,0,0-.66-.85A2.3,2.3,0,0,1,28.73,25.19Z"/><path class="cls-11" d="M28,24.59a.55.55,0,0,0-.3-.38.11.11,0,0,0,0,.08s.16.29.19.32a.63.63,0,0,0-.17.31S27.86,24.92,28,24.59Z"/><path class="cls-11" d="M27.88,24.62a.55.55,0,0,1-.5-.06S27.72,24.39,27.88,24.62Z"/><path class="cls-11" d="M28.1,23.81a.62.62,0,0,0-.08-.48.09.09,0,0,0,0,.07v.38a.93.93,0,0,0-.27.25S27.9,24.14,28.1,23.81Z"/><path class="cls-11" d="M28,23.8a.52.52,0,0,1-.41-.29S28,23.5,28,23.8Z"/><path class="cls-11" d="M28.84,23.27c.31-.12.36-.25.36-.25h-.12a1.78,1.78,0,0,0-.27.17.72.72,0,0,0-.32-.15S28.51,23.19,28.84,23.27Z"/><path class="cls-11" d="M28.82,23.19a.55.55,0,0,1,0-.5S29,23,28.82,23.19Z"/><path class="cls-11" d="M29.51,23.75a.45.45,0,0,0,.42,0s-.07-.09-.1-.09l-.28-.05a1,1,0,0,0-.19-.3A.5.5,0,0,0,29.51,23.75Z"/><path class="cls-11" d="M29.56,23.66a.49.49,0,0,1,.29-.39S29.83,23.64,29.56,23.66Z"/><path class="cls-11" d="M29.9,24.5a.54.54,0,0,0,.38.29.09.09,0,0,0,0-.07L30,24.5a.48.48,0,0,0,0-.37S29.91,24.17,29.9,24.5Z"/><path class="cls-11" d="M30,24.5a.51.51,0,0,1,.49-.07S30.19,24.64,30,24.5Z"/><path class="cls-11" d="M30.22,25.57a.52.52,0,0,0,.12.46V26s0-.34-.05-.37a.93.93,0,0,0,.27-.22S30.43,25.29,30.22,25.57Z"/><path class="cls-11" d="M30.3,25.57a.54.54,0,0,1,.44.24S30.36,25.84,30.3,25.57Z"/><path class="cls-11" d="M27.67,25.59a.56.56,0,0,0-.4-.27.09.09,0,0,0,0,.07,2.26,2.26,0,0,0,.28.25.66.66,0,0,0-.06.34S27.69,25.93,27.67,25.59Z"/><path class="cls-11" d="M27.6,25.64a.5.5,0,0,1-.48.1S27.38,25.5,27.6,25.64Z"/><path class="cls-13" d="M26.85,21.25a1.35,1.35,0,0,0,.6.09.56.56,0,0,0-.21-.22h0a.86.86,0,0,0,.72.08.48.48,0,0,0-.23-.17L27.8,21h0a.74.74,0,0,0,.65,0c-.07-.1-.25-.12-.25-.14l.09-.07h0c.56,0,.63-.18.63-.18a2.14,2.14,0,0,1-.27-.06l.09-.12h0A.94.94,0,0,0,29.3,20,.66.66,0,0,0,29,20h0s0-.09.05-.13h0c.41-.39.35-.59.35-.59a.67.67,0,0,0-.25.16v-.14c.23-.49.13-.72.13-.72l-.18.21a.81.81,0,0,1-.06-.31c0-.12-.1-.53-.16-.53a.74.74,0,0,0-.08.29h0l-.08-.3a.9.9,0,0,0-.25-.39.71.71,0,0,0,0,.29s-.09,0-.1-.08a.78.78,0,0,0-.39-.5,1.27,1.27,0,0,0,.06.28h0s-.13-.08-.14-.14-.2-.37-.4-.37a.43.43,0,0,0,.1.27.23.23,0,0,1-.18-.09.89.89,0,0,0-.52-.32l.14.27a.44.44,0,0,0-.32,0,.54.54,0,0,0,.27.18.55.55,0,0,0-.25.2,1.09,1.09,0,0,0,.67-.12h.06s-.24.06-.26.13a1.06,1.06,0,0,0,.66,0h0v.06a.54.54,0,0,0-.3.06.92.92,0,0,0,.64.15h0v.06h0a.71.71,0,0,0-.29,0,.78.78,0,0,0,.53.25h.08v.08s-.25-.09-.33,0a1.15,1.15,0,0,0,.56.39h0v.07h0s-.18-.15-.24-.14a.83.83,0,0,0,.35.58h0a.17.17,0,0,1,0,.1s-.09-.21-.2-.26a1.39,1.39,0,0,0,.1.64h0a.11.11,0,0,1,0,.08h0s0-.23-.07-.26-.2.16-.15.67h-.12a.65.65,0,0,0,.05-.31s-.24,0-.37.57h-.08a.45.45,0,0,0,.09-.29,1.07,1.07,0,0,0-.46.5h-.12a.4.4,0,0,0,.16-.28,1.29,1.29,0,0,0-.54.39h-.09s.19-.09.19-.24a1,1,0,0,0-.56.25,1,1,0,0,0-.58-.27c0,.16.18.24.18.25h-.06a1.21,1.21,0,0,0-.55-.39.41.41,0,0,0,.17.27h-.1a1,1,0,0,0-.46-.49.6.6,0,0,0,.08.29h-.07c-.13-.54-.37-.57-.37-.57a1.54,1.54,0,0,0,.05.31h-.12c.05-.5-.15-.66-.15-.66l-.06.25h0v-.08h0a1.09,1.09,0,0,0,.1-.64c-.11.05-.19.26-.19.26v-.1h0a.78.78,0,0,0,.35-.59c-.06,0-.24.14-.24.14h0v-.06h0a1.12,1.12,0,0,0,.56-.39c-.08-.05-.32,0-.32,0v-.08H25a.74.74,0,0,0,.53-.25.71.71,0,0,0-.29,0h0v-.05h0a.89.89,0,0,0,.64-.15.6.6,0,0,0-.3-.05v-.07h0a1,1,0,0,0,.66-.05c0-.06-.26-.12-.27-.13H26a1.12,1.12,0,0,0,.67.12.39.39,0,0,0-.25-.2.47.47,0,0,0,.28-.19.62.62,0,0,0-.33,0c.16-.22.14-.27.14-.27a1,1,0,0,0-.52.33.28.28,0,0,1-.18.09A.39.39,0,0,0,26,17c-.21,0-.41.37-.41.37s0,.11-.1.11h0a1.27,1.27,0,0,0,.06-.28.8.8,0,0,0-.38.5L25,17.8a.71.71,0,0,0,0-.29.93.93,0,0,0-.25.38s-.06.3-.07.31h0a.59.59,0,0,0-.07-.29c-.06,0-.18.41-.16.53a.63.63,0,0,1-.07.3s-.1-.19-.17-.2-.11.23.13.72h0v.11a.67.67,0,0,0-.25-.16s-.06.2.35.59h0l.06.12h0a.61.61,0,0,0-.27,0,.91.91,0,0,0,.56.41h0l.1.12s-.24,0-.29.06.07.17.63.18h0l.09.08s-.18,0-.25.13a.7.7,0,0,0,.66,0h.07a.63.63,0,0,0-.22.18.92.92,0,0,0,.71-.08h0a.56.56,0,0,0-.21.22A1.59,1.59,0,0,0,26.85,21.25Z"/><path class="cls-14" d="M29.51,28.66a.12.12,0,0,0,.15-.07c.17.11.24,0,.24,0,.11.16.19.05.19.05l.18.1.14.14a.13.13,0,0,0,.12.13c-.06.1.07.18.07.18a.64.64,0,0,1,.06.4c-.11.07-.1.3-.1.3a.34.34,0,0,0-.15.23.31.31,0,0,0-.24.18.34.34,0,0,0-.31,0c-.21-.16-.31-.06-.31-.06a.29.29,0,0,0-.27-.13.16.16,0,0,0-.19-.14h0a.15.15,0,0,0-.15-.12.14.14,0,0,0-.18-.16.26.26,0,0,0-.19-.2.21.21,0,0,0-.2-.22.27.27,0,0,0-.24-.17.43.43,0,0,0-.29-.25.6.6,0,0,0-.47-.29.78.78,0,0,0-.63-.2.73.73,0,0,0-.64-.06.62.62,0,0,0-.62.06.79.79,0,0,0-.6.12.58.58,0,0,0-.49.17.7.7,0,0,0-.47.26c-.15,0-.38.3-.38.3s-.3.19-.3.4a7.89,7.89,0,0,1,2.39,1.28.47.47,0,0,0,.29-.14.41.41,0,0,0,.39-.23s.32,0,.39-.16c0,0,.16.08.24,0s.12.1.21,0a.15.15,0,0,0,.2.07.18.18,0,0,0,.21.1.22.22,0,0,0,.22.13.22.22,0,0,0,.25.13s.11.18.26.15.18.21.31.15.21.19.33.12.26.18.39.07.25.14.39,0,.31.07.39-.13c0,0,.36,0,.36-.26a.34.34,0,0,0,.35-.38.46.46,0,0,0,.2-.46s.19-.29.07-.41.08-.23-.05-.33a.22.22,0,0,0-.1-.26.2.2,0,0,0-.1-.24s0-.18-.15-.19a.19.19,0,0,0-.2-.19h0a.25.25,0,0,0-.28-.15.29.29,0,0,0-.31-.06s-.19-.1-.29.05-.17,0-.23.09a.56.56,0,0,0-.37.7v0a.42.42,0,0,0,.51.2A.33.33,0,0,0,29.51,28.66Z"/><path class="cls-1" d="M29.51,28.66s-.28,0-.29.18"/><path class="cls-1" d="M29.37,28.37a1.59,1.59,0,0,0,.15.29"/><path class="cls-1" d="M29.6,28.28a1.08,1.08,0,0,0,.07.31"/><path class="cls-1" d="M29.89,28.23a2,2,0,0,0,0,.35"/><path class="cls-1" d="M30.2,28.29a.83.83,0,0,0-.1.34"/><line class="cls-1" x1="30.47" y1="28.44" x2="30.28" y2="28.73"/><path class="cls-1" d="M30.7,28.63s-.24.19-.28.24"/><path class="cls-1" d="M30.85,28.82a1.49,1.49,0,0,0-.3.18"/><path class="cls-1" d="M31,29.06a1.61,1.61,0,0,0-.33.12"/><line class="cls-1" x1="30.67" y1="29.35" x2="31.05" y2="29.32"/><path class="cls-1" d="M30.69,29.58a3.2,3.2,0,0,1,.41.07"/><path class="cls-1" d="M30.59,29.88a1.28,1.28,0,0,1,.44.18"/><path class="cls-1" d="M30.44,30.11a5,5,0,0,1,.38.41"/><path class="cls-1" d="M30.2,30.29c.1.2.2.4.28.61"/><path class="cls-1" d="M29.89,30.33a6,6,0,0,1,.22.83"/><path class="cls-1" d="M29.57,30.27a4.85,4.85,0,0,1,.16,1"/><path class="cls-1" d="M29.31,30.14a7.49,7.49,0,0,1,0,1.16"/><path class="cls-1" d="M29.1,30a6.38,6.38,0,0,1-.16,1.23"/><path class="cls-1" d="M29,29.88a8.61,8.61,0,0,1-.34,1.23"/><path class="cls-1" d="M28.77,29.72A11,11,0,0,1,28.31,31"/><path class="cls-1" d="M28.58,29.5A9.09,9.09,0,0,1,28,30.79"/><path class="cls-1" d="M28.39,29.31a9.86,9.86,0,0,1-.61,1.37"/><path class="cls-1" d="M28.15,29.13a8.81,8.81,0,0,1-.58,1.42"/><path class="cls-1" d="M27.85,28.88a8.19,8.19,0,0,1-.49,1.62"/><path class="cls-1" d="M27.38,28.59a6.75,6.75,0,0,1-.22,1.79"/><path class="cls-1" d="M26.75,28.39a5.42,5.42,0,0,1,.2,2"/><path class="cls-1" d="M26.11,28.33a4.81,4.81,0,0,1,.6,2.06"/><path class="cls-1" d="M25.51,28.39a4,4,0,0,1,.83,2.16"/><path class="cls-1" d="M24.89,28.5s1.14,1.4,1,2.27"/><path class="cls-1" d="M23.51,29.25a5.24,5.24,0,0,1,2.41,1.51"/><path class="cls-1" d="M23.93,28.94a5.06,5.06,0,0,1,1.37,1.2"/><path class="cls-1" d="M24.4,28.68a4.91,4.91,0,0,1,1.2,1.72"/><path class="cls-14" d="M28.4,32.5a.36.36,0,0,0,.42-.3.37.37,0,0,0-.3-.43H28.4a.37.37,0,0,0-.31.43A.38.38,0,0,0,28.4,32.5Z"/><path class="cls-14" d="M27.67,32a.36.36,0,0,0,.36-.36h0a.37.37,0,1,0-.73,0A.36.36,0,0,0,27.67,32Z"/><path class="cls-14" d="M26.89,31.75a.36.36,0,0,0,0-.72.36.36,0,1,0,0,.72Z"/><path class="cls-14" d="M27.8,32.72a.36.36,0,0,0,.34-.37.35.35,0,0,0-.37-.35.36.36,0,0,0-.34.36.35.35,0,0,0,.35.36Z"/><path class="cls-14" d="M27.77,32.27a.35.35,0,0,0,.35-.36.36.36,0,1,0-.36.36Z"/><path class="cls-14" d="M26.45,31.68a.36.36,0,0,0,.36-.36h0a.36.36,0,0,0-.36-.36.36.36,0,0,0-.36.36h0A.36.36,0,0,0,26.45,31.68Z"/><path class="cls-14" d="M27.27,31.9a.37.37,0,0,0,.36-.37.36.36,0,0,0-.36-.36h0a.36.36,0,0,0-.37.36A.38.38,0,0,0,27.27,31.9Z"/><path class="cls-14" d="M26.8,31.94a.37.37,0,0,0,.3-.43.39.39,0,0,0-.3-.3.37.37,0,1,0-.13.73Z"/><path class="cls-14" d="M27.29,32.58a.36.36,0,0,0,0-.72h0a.36.36,0,0,0,0,.72Z"/><path class="cls-14" d="M26.27,31.82a.37.37,0,0,0,.36-.37.36.36,0,0,0-.36-.36h0a.36.36,0,0,0-.37.36A.38.38,0,0,0,26.27,31.82Z"/><path class="cls-14" d="M26.94,32.18a.37.37,0,0,0,.36-.37.36.36,0,0,0-.36-.36h0a.36.36,0,0,0-.37.36A.38.38,0,0,0,26.94,32.18Z"/><path class="cls-14" d="M25.73,31.73a.39.39,0,0,0,.37-.37.37.37,0,0,0-.37-.36.37.37,0,0,0-.37.36h0A.38.38,0,0,0,25.73,31.73Z"/><path class="cls-14" d="M26.17,32a.37.37,0,0,0,0-.73.36.36,0,0,0-.35.36A.36.36,0,0,0,26.17,32Z"/><path class="cls-14" d="M26.83,32.61a.37.37,0,1,0,0-.73.36.36,0,0,0-.35.36A.36.36,0,0,0,26.83,32.61Z"/><path class="cls-14" d="M26.42,32.3a.36.36,0,0,0,.36-.36h0a.37.37,0,1,0-.73,0A.36.36,0,0,0,26.42,32.3Z"/><path class="cls-14" d="M25,32.41a.36.36,0,1,0,0-.72h0a.36.36,0,1,0,0,.72Z"/><path class="cls-14" d="M24,32.17a.38.38,0,0,0,.37-.37h0a.37.37,0,0,0-.43-.3.34.34,0,0,0-.3.3A.36.36,0,0,0,24,32.17Z"/><path class="cls-14" d="M26.11,32.62a.36.36,0,0,0,0-.72h0a.36.36,0,1,0,0,.72Z"/><path class="cls-14" d="M25.51,32.5a.36.36,0,1,0,0-.72h0a.36.36,0,1,0,0,.72Z"/><path class="cls-14" d="M23.66,32a.36.36,0,0,0,0-.72.36.36,0,1,0,0,.72Z"/><path class="cls-14" d="M24.51,32.27a.36.36,0,0,0,.36-.36h0a.38.38,0,0,0-.33-.41h0a.38.38,0,0,0-.37.37.37.37,0,0,0,.33.4Z"/><path class="cls-14" d="M25.32,32.14a.35.35,0,0,0,.35-.36.36.36,0,0,0-.36-.36.36.36,0,0,0,0,.72Z"/><path class="cls-14" d="M24.91,32.19a.36.36,0,0,0,0-.72h0a.36.36,0,1,0,0,.72Z"/><path class="cls-14" d="M25.72,32a.37.37,0,0,0,.37-.36.39.39,0,0,0-.37-.37.38.38,0,0,0-.37.37.36.36,0,0,0,.36.36Z"/><path class="cls-14" d="M24.08,31.94a.36.36,0,0,0,.36-.36h0a.36.36,0,0,0-.36-.36.36.36,0,0,0-.36.36h0A.36.36,0,0,0,24.08,31.94Z"/><path class="cls-14" d="M25.22,31.62a.37.37,0,0,0,.36-.37.36.36,0,0,0-.36-.36h0a.38.38,0,0,0-.38.36A.39.39,0,0,0,25.22,31.62Z"/><path class="cls-14" d="M24.59,31.69a.39.39,0,0,0,.37-.37.37.37,0,0,0-.37-.36.36.36,0,0,0-.36.36h0A.36.36,0,0,0,24.59,31.69Z"/><path class="cls-14" d="M23.51,31.69a.37.37,0,0,0,0-.73.36.36,0,0,0-.35.36A.36.36,0,0,0,23.51,31.69Z"/><path class="cls-14" d="M23.62,31.13a.36.36,0,0,0,0-.72.36.36,0,1,0,0,.72Z"/><path class="cls-14" d="M24.17,31.38a.35.35,0,0,0,.35-.36.36.36,0,1,0-.36.36Z"/><path class="cls-14" d="M23.19,31a.36.36,0,0,0,.34-.37.35.35,0,0,0-.37-.35.36.36,0,0,0-.34.36.35.35,0,0,0,.35.36Z"/><path class="cls-14" d="M24.76,31.13a.37.37,0,0,0,.36-.37.36.36,0,0,0-.36-.36.36.36,0,0,0-.36.36h0A.36.36,0,0,0,24.76,31.13Z"/><path class="cls-14" d="M24.2,30.86a.36.36,0,0,0,.37-.36.37.37,0,0,0-.36-.38.36.36,0,0,0-.37.36s0,0,0,0a.36.36,0,0,0,.35.36Z"/><path class="cls-14" d="M23.51,30.56a.36.36,0,0,0,.36-.36h0a.36.36,0,0,0-.36-.36.36.36,0,0,0-.36.36h0A.36.36,0,0,0,23.51,30.56Z"/><ellipse class="cls-4" cx="33.82" cy="23.85" rx="0.34" ry="0.32"/><path class="cls-4" d="M35.56,23.3a.32.32,0,0,0,.37-.26.32.32,0,0,0-.26-.37.2.2,0,0,0-.11,0,.32.32,0,1,0-.12.63Z"/><path class="cls-4" d="M36.35,27.59a.32.32,0,1,0,.12-.63.24.24,0,0,0-.12,0,.32.32,0,0,0-.37.26.32.32,0,0,0,.26.37A.2.2,0,0,0,36.35,27.59Z"/><path class="cls-4" d="M34.19,27.5a.32.32,0,0,0,.33-.32h0a.35.35,0,0,0-.34-.32.32.32,0,0,0-.34.32h0a.32.32,0,0,0,.33.32Z"/><path class="cls-4" d="M33.35,31.21a.32.32,0,0,0,.37-.26.32.32,0,0,0-.26-.37h-.11a.32.32,0,1,0-.12.63Z"/><path class="cls-4" d="M35.37,32a.31.31,0,0,0,.29-.34.32.32,0,0,0-.34-.3.31.31,0,0,0-.29.33A.32.32,0,0,0,35.37,32Z"/><line class="cls-1" x1="34.01" y1="24.1" x2="34.57" y2="24.71"/><line class="cls-1" x1="35.42" y1="23.21" x2="35.05" y2="24.55"/><line class="cls-1" x1="34.38" y1="27.37" x2="34.89" y2="28.14"/><line class="cls-1" x1="36.12" y1="27.54" x2="35.21" y2="28.39"/><line class="cls-1" x1="33.48" y1="31.15" x2="33.74" y2="31.84"/><line class="cls-1" x1="35.07" y1="31.77" x2="33.51" y2="32.3"/><line class="cls-1" x1="21.24" y1="33.92" x2="20.88" y2="33.18"/><polygon class="cls-11" points="19.71 21.1 18.68 23.08 19.16 23.56 19.75 22.89 19.71 21.1"/><polygon class="cls-11" points="20.61 20.97 18.84 23.72 19.23 24.94 20.13 23.88 20.61 20.97"/><polygon class="cls-11" points="18.79 22.31 19.2 25.06 18.79 25.96 17.8 24.9 18.79 22.31"/><polygon class="cls-11" points="17.91 23.59 18.66 26.25 18.18 26.7 17.7 26.03 17.91 23.59"/><path class="cls-11" d="M18.21,26.89c-.11-2.09,2.44-4.26,2.44-4.26a5.1,5.1,0,0,0-.14,1.51l-1.67,3.68Z"/><polygon class="cls-11" points="17.46 25.35 19 28.2 18.52 28.68 17.7 27.27 17.46 25.35"/><path class="cls-11" d="M20,27.08c-.42-1,.86-3.62.86-3.62s-2.43,3.3-2.14,6l.8-.06Z"/><polygon class="cls-11" points="17.3 26.79 19.61 29.51 19.11 30.54 17.75 29.16 17.3 26.79"/><path class="cls-11" d="M19,30.67c-.25-3.81,1.5-4.77,1.5-4.77S20,28,20.45,28.59L20,31.5Z"/><polygon class="cls-11" points="17.46 28.81 20.32 31.66 19.71 32.78 18.66 31.85 17.46 28.81"/><path class="cls-11" d="M20,33.36a7.94,7.94,0,0,1,.64-5.54,6.07,6.07,0,0,0,.16,2.68l.51,2.85Z"/><path class="cls-11" d="M18.21,31.43s1,2.09,2,2.47l1.5.32A8.16,8.16,0,0,0,18.21,31.43Z"/><path class="cls-11" d="M20.87,29.5s.35,3.75,1.76,4.93-.51.32-.51.32C19.94,33.5,20.87,29.5,20.87,29.5Z"/><path class="cls-11" d="M19.24,33.23S21,35.63,22.76,35c-.48-.77-.86-1-1.22-1A17.64,17.64,0,0,1,19.24,33.23Z"/><path class="cls-11" d="M21.38,31.37s.57,1.06.8,1.38,1,1,1.15,1.25a9.23,9.23,0,0,0,1,1l-1.6-.06c-1.25-.9-1.47-3.69-1.47-3.69Z"/><path class="cls-11" d="M20.61,34.5s2.74,0,3.11.09,1.44.53,1.63.52h.93v.41a6.87,6.87,0,0,1-1.57,0c-.19-.13-.7-.06-1-.06S20.71,35.21,20.61,34.5Z"/><line class="cls-1" x1="33.74" y1="31.84" x2="33.97" y2="31.77"/><line class="cls-1" x1="33.12" y1="32.25" x2="31.58" y2="33.61"/><path class="cls-11" d="M34.6,23.5a3,3,0,0,0-.84-3.23A2.93,2.93,0,0,0,34.6,23.5Z"/><path class="cls-11" d="M34.6,23.5a3.2,3.2,0,0,1-2.91-2C33.1,21.2,34.6,23.5,34.6,23.5Z"/><path class="cls-11" d="M35.26,27.15A4.87,4.87,0,0,0,36.33,24,2.64,2.64,0,0,0,35.26,27.15Z"/><path class="cls-11" d="M34.44,31a4,4,0,0,0,2.25-2.6A2.81,2.81,0,0,0,34.44,31Z"/><path class="cls-11" d="M32,34.08a3.57,3.57,0,0,0,3.18-1A2.75,2.75,0,0,0,32,34.08Z"/><path class="cls-11" d="M34,30.89a3.07,3.07,0,0,1-.52-3.33C35.1,28,34,30.89,34,30.89Z"/><path class="cls-11" d="M35.17,27.08c-2.08-1-2-2.18-2-2.18C34.67,24.36,35.17,27.08,35.17,27.08Z"/><path class="cls-11" d="M35.15,27.59c1.25-2.56-.53-3.84-.53-3.84S33.71,25.16,35.15,27.59Z"/><path class="cls-11" d="M34.62,23.75c.32-2.17-2.32-3.58-2.32-3.58S32.11,21.83,34.62,23.75Z"/><path class="cls-11" d="M31.79,33.9c-.48-1,1-2.5,1-2.5S33.83,33.71,31.79,33.9Z"/><path class="cls-11" d="M34.14,31.44a4.74,4.74,0,0,0-2.51,2c-.71,1-3.4,1.57-3.4,1.57l1,.35a4.93,4.93,0,0,1,1.41-.76,6.86,6.86,0,0,0,1.48-.32A3.79,3.79,0,0,0,34.14,31.44Z"/><path class="cls-11" d="M34.14,31.44c1.88-2.21,1-4,1-4S33.26,28.5,34.14,31.44Z"/><path class="cls-3" d="M24,34.7s-.64-.19-.06-1c0,0,.32-.32.57-.29a1.79,1.79,0,0,1,.87.38,3.83,3.83,0,0,0,1.76.83c.44,0,1.66-1,1.95-1s.77,0,.77,1l-.13.13L28,35.08l2.63.8s-.84.13-.42.87l-3.14-1L24.39,37.2s.22-1-.55-1.09a4,4,0,0,1,2.4-.58v-.41A5.52,5.52,0,0,1,24,34.7Z"/><path class="cls-1" d="M29.39,34.41c.05-.54-.37-.35-.37-.35l-1,.48v.26Z"/><path class="cls-1" d="M24.78,33.8a4.92,4.92,0,0,1,1,.71.21.21,0,0,1,0,.29,7.44,7.44,0,0,1-1.35-.36C24,33.77,24.78,33.8,24.78,33.8Z"/><path class="cls-1" d="M25.67,35.82l-1,.42a.19.19,0,0,0,.19.19C25.05,36.43,26,36,25.67,35.82Z"/><path class="cls-1" d="M28.11,35.66a7.58,7.58,0,0,0,1.43.51c.13,0,.17-.19.1-.32a8.47,8.47,0,0,0-1.53-.48Z"/><path class="cls-1" d="M26.76,34.86v.51s.38.13.51,0v-.51S26.86,34.73,26.76,34.86Z"/><rect class="cls-15" x="-12.46" y="0.2" width="78.93" height="53.59"/></g></g></g></svg>